<svg id="Icons" height="512" viewBox="0 0 74 74" width="512" xmlns="http://www.w3.org/2000/svg"><path d="m58.72 11.28a1 1 0 0 1 -.737-.324 18.484 18.484 0 0 0 -2-1.888 1 1 0 0 1 1.258-1.556 20.651 20.651 0 0 1 2.215 2.088 1 1 0 0 1 -.736 1.676z"/><path d="m37.72 72.01a1 1 0 0 1 -.5-.133 25.477 25.477 0 0 1 -7.22-6.556 7.056 7.056 0 0 0 -5.3-2.943 42.431 42.431 0 0 1 -6.687-.951 3.959 3.959 0 0 1 -2.969-4.922l.961-3.505-.481-.138a2.254 2.254 0 0 1 -1.1-3.614l.026-.032a4.263 4.263 0 0 1 -1.14-2.379 4.715 4.715 0 0 1 .363-2.405 41.782 41.782 0 0 1 -4.049-1.932 2.638 2.638 0 0 1 -.972-3.72l5.02-8.083c-.235-9.765 2.265-17.238 7.433-22.214 7.024-6.762 16.422-6.472 17.479-6.416a30.132 30.132 0 0 1 12.03 1.725 1 1 0 1 1 -.689 1.876 28.325 28.325 0 0 0 -11.225-1.603.908.908 0 0 1 -.165 0c-.093 0-9.42-.533-16.056 5.872-4.788 4.621-7.075 11.686-6.8 21a1 1 0 0 1 -.151.558l-5.179 8.34a.643.643 0 0 0 -.079.512.617.617 0 0 0 .3.391 37.611 37.611 0 0 0 4.865 2.23 1 1 0 0 1 .447 1.554 2.56 2.56 0 0 0 .55 3.8 1 1 0 0 1 .162 1.432l-.64.77a.254.254 0 0 0 -.051.243.237.237 0 0 0 .167.167l1.43.41a1 1 0 0 1 .689 1.225l-1.22 4.46a1.959 1.959 0 0 0 1.467 2.439 40.433 40.433 0 0 0 6.371.908 9.074 9.074 0 0 1 6.812 3.78 23.769 23.769 0 0 0 6.316 5.813c7.956-1.026 14.515-3.927 19.51-8.628l-2.226-5.271c-2.647-6.811 1.185-10.488 1.349-10.641 6.637-6.132 6.911-11.547 6.913-11.6a52.986 52.986 0 0 0 .269-5.574 1 1 0 0 1 .994-1h.006a1 1 0 0 1 1 1 54.772 54.772 0 0 1 -.274 5.714c0 .179-.242 6.187-7.547 12.936-.115.11-2.983 2.952-.857 8.423l2.489 5.872a1 1 0 0 1 -.219 1.1c-5.446 5.364-12.68 8.627-21.5 9.7a1 1 0 0 1 -.122.01z"/><path d="m63.619 20.48a1 1 0 0 1 -.965-.741 22.99 22.99 0 0 0 -1.025-3 1 1 0 0 1 1.842-.78 25.116 25.116 0 0 1 1.115 3.261 1 1 0 0 1 -.707 1.225 1.015 1.015 0 0 1 -.26.035z"/><path d="m54.135 25.693h-12.816a1 1 0 0 1 -1-1v-12.685a1 1 0 0 1 1.151-.989 16.258 16.258 0 0 1 13.652 13.515 1 1 0 0 1 -.987 1.159zm-11.816-2h10.592a14.251 14.251 0 0 0 -10.592-10.474z"/><path d="m38.994 43.522a16.346 16.346 0 0 1 -2.474-32.5 1.009 1.009 0 0 1 .8.231 1 1 0 0 1 .348.758v15.008a1.32 1.32 0 0 0 .386.939l10.817 10.816a1 1 0 0 1 -.109 1.509 16.226 16.226 0 0 1 -9.768 3.239zm-3.325-30.3a14.346 14.346 0 0 0 3.325 28.3 14.222 14.222 0 0 0 7.612-2.185l-9.965-9.965a3.3 3.3 0 0 1 -.972-2.352z"/><path d="m51.429 37.161a1 1 0 0 1 -.707-.293l-6.822-6.817a1 1 0 0 1 .707-1.707h9.571a1 1 0 0 1 .99 1.138 16.24 16.24 0 0 1 -2.934 7.266 1 1 0 0 1 -.73.41zm-4.4-6.817 4.247 4.246a14.282 14.282 0 0 0 1.711-4.246z"/></svg>